<svg width="48" height="48" viewBox="0 0 48 48" fill="none" xmlns="http://www.w3.org/2000/svg">
<path d="M24 0C19.2533 0 14.6131 1.40758 10.6663 4.04473C6.71954 6.68188 3.6434 10.4302 1.8269 14.8156C0.0103987 19.201 -0.464881 24.0266 0.461164 28.6822C1.38721 33.3377 3.67299 37.6141 7.02945 40.9706C10.3859 44.327 14.6623 46.6128 19.3178 47.5388C23.9734 48.4649 28.799 47.9896 33.1844 46.1731C37.5698 44.3566 41.3181 41.2805 43.9553 37.3337C46.5924 33.3869 48 28.7467 48 24C48 17.6348 45.4714 11.5303 40.9706 7.02944C36.4697 2.52856 30.3652 0 24 0V0ZM19.6923 32.6985H6.80001V31.8277H8.72001V16.4154H6.80001V15.5477C10.28 15.5477 13.7969 15.2185 17.28 15.1108V18.7692H17.3508C18.5477 16.56 20.6154 15.1815 23.1969 15.1815C25.5908 15.1815 27.8738 16.5938 27.8738 19.2062C27.8738 21.7077 26.1323 23.4492 23.6308 23.4492C21.2369 23.4492 19.5692 21.8892 19.5692 19.4492C19.5708 18.8741 19.6442 18.3015 19.7877 17.7446C19.2431 16.84 18.1569 18.9077 18.0462 19.2677C17.5385 20.6831 17.6492 21.9877 17.6492 23.4769V31.8154H19.6923V32.6985ZM41.2585 31.6923V32.5631C37.7754 32.5631 34.2585 32.8892 30.7785 32.9969V29.3385H30.7046C29.5077 31.5508 27.44 32.9231 24.8677 32.9231C22.4739 32.9231 20.1877 31.5077 20.1877 28.8985C20.1877 26.3938 21.9292 24.6554 24.4308 24.6554C26.8246 24.6554 28.4923 26.2154 28.4923 28.6554C28.4924 29.2306 28.419 29.8034 28.2739 30.36C28.8185 31.2677 29.9077 29.2 30.0154 28.8215C30.5231 27.4061 30.4154 26.1015 30.4154 24.6154V16.2831H28.2615V15.4154H41.2462V16.2831H39.3231V31.6923H41.2585Z" fill="#2B292A"/>
</svg>
